<svg width="181" height="31" viewBox="0 0 181 31" fill="none" xmlns="http://www.w3.org/2000/svg">
<path d="M43.2083 12.2137L40.6741 12.9991C40.5787 12.4755 40.3198 12.0002 39.8975 11.573C39.4751 11.1459 38.8552 10.9323 38.0377 10.9323C37.3701 10.9323 36.8251 11.1183 36.4027 11.4904C35.9803 11.8486 35.7692 12.2826 35.7692 12.7924C35.7692 13.688 36.2937 14.2392 37.3428 14.4458L39.3661 14.8385C40.6468 15.0865 41.6414 15.6032 42.3499 16.3886C43.0584 17.174 43.4126 18.0971 43.4126 19.1581C43.4126 20.3706 42.9358 21.4315 41.982 22.3409C41.0419 23.2365 39.7748 23.6843 38.1807 23.6843C37.2679 23.6843 36.4436 23.5465 35.7079 23.2709C34.9721 22.9954 34.3794 22.6302 33.9298 22.1755C33.4802 21.7071 33.126 21.2179 32.8671 20.7081C32.6219 20.1846 32.472 19.6472 32.4175 19.0961L35.0334 18.3934C35.1016 19.1787 35.4013 19.8332 35.9327 20.3568C36.4777 20.8804 37.2338 21.1422 38.2012 21.1422C38.9369 21.1422 39.5092 20.9768 39.9179 20.6461C40.3403 20.3154 40.5514 19.8814 40.5514 19.3441C40.5514 18.9169 40.3948 18.5518 40.0814 18.2487C39.7816 17.9318 39.3525 17.7182 38.7939 17.608L36.7706 17.1946C35.5989 16.9466 34.6724 16.4575 33.9911 15.7272C33.3099 14.997 32.9693 14.0876 32.9693 12.9991C32.9693 11.7039 33.4598 10.6154 34.4408 9.73361C35.4354 8.85179 36.6275 8.41088 38.0172 8.41088C38.8484 8.41088 39.5909 8.528 40.2449 8.76223C40.8989 8.99647 41.4234 9.31337 41.8185 9.71295C42.2137 10.0987 42.5202 10.4983 42.7382 10.9117C42.9562 11.325 43.1129 11.759 43.2083 12.2137Z" fill="#1C2642"/>
<path d="M44.3234 20.6048C44.3234 19.7368 44.6027 19.0409 45.1613 18.5174C45.7199 17.9938 46.442 17.6631 47.3276 17.5253L49.8005 17.1533C50.3046 17.0844 50.5567 16.8433 50.5567 16.4299C50.5567 16.0441 50.4068 15.7272 50.1071 15.4792C49.8209 15.2312 49.4054 15.1072 48.8604 15.1072C48.2882 15.1072 47.8317 15.2657 47.4911 15.5826C47.1641 15.8995 46.9802 16.2921 46.9393 16.7606L44.5277 16.2439C44.6231 15.3621 45.0523 14.5836 45.8153 13.9085C46.5783 13.2333 47.5865 12.8958 48.84 12.8958C50.3387 12.8958 51.4423 13.2609 52.1508 13.9911C52.8593 14.7076 53.2135 15.6308 53.2135 16.7606V21.7622C53.2135 22.3684 53.2544 22.9058 53.3361 23.3743H50.8428C50.7747 23.0711 50.7406 22.6647 50.7406 22.1549C50.1003 23.1607 49.1125 23.6636 47.7772 23.6636C46.7418 23.6636 45.9038 23.3605 45.2635 22.7542C44.6367 22.148 44.3234 21.4315 44.3234 20.6048ZM48.3495 21.6175C48.9898 21.6175 49.5144 21.4384 49.9231 21.0802C50.3455 20.7081 50.5567 20.1019 50.5567 19.2614V18.8067L48.2882 19.1581C47.4571 19.2821 47.0415 19.7092 47.0415 20.4395C47.0415 20.7701 47.1573 21.0526 47.3889 21.2868C47.6206 21.5073 47.9407 21.6175 48.3495 21.6175Z" fill="#1C2642"/>
<path d="M59.9999 10.6843C59.6184 10.6843 59.2846 10.7946 58.9985 11.015C58.726 11.2217 58.5897 11.5799 58.5897 12.0897V13.2058H60.8583V15.5619H58.5897V23.3743H55.8512V15.5619H54.1753V13.2058H55.8512V12.0484C55.8512 10.9048 56.1782 9.98851 56.8321 9.29959C57.4998 8.61067 58.3922 8.26621 59.5094 8.26621C60.1089 8.26621 60.5585 8.3351 60.8583 8.47289V10.7877C60.6266 10.7188 60.3405 10.6843 59.9999 10.6843Z" fill="#1C2642"/>
<path d="M63.7747 17.1326H68.2709C68.2436 16.5677 68.0392 16.0924 67.6577 15.7066C67.2899 15.3208 66.7449 15.1279 66.0228 15.1279C65.3688 15.1279 64.8374 15.3345 64.4287 15.7479C64.0199 16.1613 63.8019 16.6228 63.7747 17.1326ZM68.5365 19.7781L70.8051 20.4601C70.5326 21.3971 69.9944 22.1686 69.1905 22.7749C68.4003 23.3811 67.4125 23.6843 66.2271 23.6843C64.7829 23.6843 63.5567 23.1951 62.5485 22.2169C61.5402 21.2248 61.0361 19.9021 61.0361 18.2487C61.0361 16.6779 61.5266 15.3965 62.5076 14.4045C63.4886 13.3987 64.6467 12.8958 65.9819 12.8958C67.5351 12.8958 68.7477 13.3642 69.6197 14.3012C70.5053 15.2381 70.9481 16.5264 70.9481 18.166C70.9481 18.2762 70.9413 18.4002 70.9277 18.538C70.9277 18.6758 70.9277 18.786 70.9277 18.8687L70.9072 19.0134H63.7134C63.7406 19.6748 63.9995 20.2259 64.49 20.6668C64.9805 21.1077 65.5663 21.3282 66.2476 21.3282C67.4057 21.3282 68.1687 20.8115 68.5365 19.7781Z" fill="#1C2642"/>
<path d="M72.6798 8.7209H77.8913C79.2674 8.7209 80.3437 9.08603 81.1204 9.81628C81.9106 10.5465 82.3057 11.4973 82.3057 12.6684C82.3057 13.4125 82.1082 14.0738 81.713 14.6525C81.3179 15.2174 80.8138 15.6032 80.2007 15.8099C80.9364 15.989 81.5427 16.3955 82.0196 17.0293C82.5101 17.6493 82.7553 18.4002 82.7553 19.2821C82.7553 20.4808 82.3466 21.4659 81.5291 22.2375C80.7116 22.9954 79.6285 23.3743 78.2796 23.3743H72.6798V8.7209ZM75.4593 14.7765H77.4621C78.1025 14.7765 78.6066 14.6112 78.9745 14.2805C79.3423 13.9498 79.5263 13.502 79.5263 12.9371C79.5263 12.3722 79.3423 11.9313 78.9745 11.6144C78.6202 11.2837 78.1093 11.1183 77.4417 11.1183H75.4593V14.7765ZM75.4593 20.9975H77.7482C78.4295 20.9975 78.9608 20.8321 79.3423 20.5015C79.7374 20.157 79.935 19.6885 79.935 19.0961C79.935 18.5036 79.7443 18.0282 79.3628 17.67C78.9949 17.3118 78.4703 17.1326 77.7891 17.1326H75.4593V20.9975Z" fill="#1C2642"/>
<path d="M86.4184 17.1326H90.9145C90.8873 16.5677 90.6829 16.0924 90.3014 15.7066C89.9335 15.3208 89.3885 15.1279 88.6664 15.1279C88.0125 15.1279 87.4811 15.3345 87.0723 15.7479C86.6636 16.1613 86.4456 16.6228 86.4184 17.1326ZM91.1802 19.7781L93.4487 20.4601C93.1762 21.3971 92.638 22.1686 91.8342 22.7749C91.044 23.3811 90.0562 23.6843 88.8708 23.6843C87.4266 23.6843 86.2004 23.1951 85.1921 22.2169C84.1839 21.2248 83.6798 19.9021 83.6798 18.2487C83.6798 16.6779 84.1703 15.3965 85.1513 14.4045C86.1322 13.3987 87.2903 12.8958 88.6256 12.8958C90.1788 12.8958 91.3914 13.3642 92.2634 14.3012C93.149 15.2381 93.5918 16.5264 93.5918 18.166C93.5918 18.2762 93.585 18.4002 93.5713 18.538C93.5713 18.6758 93.5713 18.786 93.5713 18.8687L93.5509 19.0134H86.357C86.3843 19.6748 86.6432 20.2259 87.1337 20.6668C87.6241 21.1077 88.21 21.3282 88.8912 21.3282C90.0493 21.3282 90.8123 20.8115 91.1802 19.7781Z" fill="#1C2642"/>
<path d="M98.4708 10.1676V13.2058H100.494V15.6446H98.4708V19.9021C98.4708 20.3292 98.5662 20.6324 98.7569 20.8115C98.9477 20.9906 99.2474 21.0802 99.6562 21.0802C100.024 21.0802 100.303 21.0526 100.494 20.9975V23.2709C100.099 23.4363 99.588 23.5189 98.9613 23.5189C97.9803 23.5189 97.2037 23.2434 96.6315 22.6922C96.0592 22.1273 95.7731 21.3557 95.7731 20.3775V15.6446H93.9542V13.2058H94.4651C94.9693 13.2058 95.3508 13.0611 95.6096 12.7718C95.8821 12.4686 96.0184 12.0759 96.0184 11.5937V10.1676H98.4708Z" fill="#1C2642"/>
<path d="M105.482 10.1676V13.2058H107.505V15.6446H105.482V19.9021C105.482 20.3292 105.577 20.6324 105.768 20.8115C105.959 20.9906 106.258 21.0802 106.667 21.0802C107.035 21.0802 107.314 21.0526 107.505 20.9975V23.2709C107.11 23.4363 106.599 23.5189 105.972 23.5189C104.991 23.5189 104.215 23.2434 103.642 22.6922C103.07 22.1273 102.784 21.3557 102.784 20.3775V15.6446H100.965V13.2058H101.476C101.98 13.2058 102.362 13.0611 102.621 12.7718C102.893 12.4686 103.029 12.0759 103.029 11.5937V10.1676H105.482Z" fill="#1C2642"/>
<path d="M111.919 23.3743H109.201V13.2058H111.919V23.3743ZM108.874 9.87829C108.874 9.40982 109.037 9.01025 109.364 8.67956C109.691 8.3351 110.086 8.16287 110.55 8.16287C111.013 8.16287 111.408 8.32821 111.735 8.6589C112.062 8.98958 112.225 9.39604 112.225 9.87829C112.225 10.333 112.062 10.7257 111.735 11.0563C111.408 11.387 111.013 11.5524 110.55 11.5524C110.086 11.5524 109.691 11.387 109.364 11.0563C109.037 10.7257 108.874 10.333 108.874 9.87829Z" fill="#1C2642"/>
<path d="M116.934 17.5253V23.3743H114.216V13.2058H116.852V14.4665C117.138 13.9705 117.547 13.5916 118.078 13.3298C118.61 13.068 119.168 12.9371 119.754 12.9371C120.94 12.9371 121.839 13.316 122.452 14.0738C123.079 14.8179 123.392 15.7823 123.392 16.9673V23.3743H120.674V17.4426C120.674 16.8364 120.517 16.3473 120.204 15.9752C119.904 15.6032 119.441 15.4172 118.814 15.4172C118.242 15.4172 117.786 15.617 117.445 16.0166C117.104 16.4162 116.934 16.9191 116.934 17.5253Z" fill="#1C2642"/>
<path d="M124.822 23.9323L127.275 23.2709C127.37 23.8358 127.629 24.2974 128.051 24.6557C128.474 25.0139 128.998 25.193 129.625 25.193C131.41 25.193 132.302 24.2492 132.302 22.3615V21.6175C132.071 21.9895 131.716 22.2995 131.24 22.5476C130.763 22.7956 130.184 22.9196 129.502 22.9196C128.167 22.9196 127.05 22.4511 126.151 21.5142C125.265 20.5772 124.822 19.3992 124.822 17.98C124.822 16.6022 125.265 15.431 126.151 14.4665C127.036 13.502 128.154 13.0198 129.502 13.0198C130.238 13.0198 130.851 13.1576 131.342 13.4331C131.832 13.6949 132.173 14.0187 132.364 14.4045V13.2058H134.98V22.2789C134.98 23.8083 134.544 25.0759 133.672 26.0817C132.8 27.1013 131.478 27.6111 129.707 27.6111C128.385 27.6111 127.275 27.2529 126.376 26.5364C125.49 25.8199 124.972 24.9519 124.822 23.9323ZM129.973 20.5635C130.667 20.5635 131.233 20.3292 131.669 19.8608C132.118 19.3923 132.343 18.7654 132.343 17.98C132.343 17.2084 132.112 16.5884 131.648 16.1199C131.199 15.6514 130.64 15.4172 129.973 15.4172C129.278 15.4172 128.699 15.6514 128.235 16.1199C127.786 16.5884 127.561 17.2084 127.561 17.98C127.561 18.7654 127.786 19.3923 128.235 19.8608C128.685 20.3292 129.264 20.5635 129.973 20.5635Z" fill="#1C2642"/>
<path d="M147.072 12.2137L144.538 12.9991C144.442 12.4755 144.183 12.0002 143.761 11.573C143.339 11.1459 142.719 10.9323 141.901 10.9323C141.234 10.9323 140.689 11.1183 140.266 11.4904C139.844 11.8486 139.633 12.2826 139.633 12.7924C139.633 13.688 140.157 14.2392 141.206 14.4458L143.23 14.8385C144.51 15.0865 145.505 15.6032 146.213 16.3886C146.922 17.174 147.276 18.0971 147.276 19.1581C147.276 20.3706 146.799 21.4315 145.846 22.3409C144.906 23.2365 143.638 23.6843 142.044 23.6843C141.131 23.6843 140.307 23.5465 139.571 23.2709C138.836 22.9954 138.243 22.6302 137.793 22.1755C137.344 21.7071 136.99 21.2179 136.731 20.7081C136.485 20.1846 136.336 19.6472 136.281 19.0961L138.897 18.3934C138.965 19.1787 139.265 19.8332 139.796 20.3568C140.341 20.8804 141.097 21.1422 142.065 21.1422C142.8 21.1422 143.373 20.9768 143.781 20.6461C144.204 20.3154 144.415 19.8814 144.415 19.3441C144.415 18.9169 144.258 18.5518 143.945 18.2487C143.645 17.9318 143.216 17.7182 142.657 17.608L140.634 17.1946C139.462 16.9466 138.536 16.4575 137.855 15.7272C137.173 14.997 136.833 14.0876 136.833 12.9991C136.833 11.7039 137.323 10.6154 138.304 9.73361C139.299 8.85179 140.491 8.41088 141.881 8.41088C142.712 8.41088 143.454 8.528 144.108 8.76223C144.762 8.99647 145.287 9.31337 145.682 9.71295C146.077 10.0987 146.384 10.4983 146.602 10.9117C146.82 11.325 146.976 11.759 147.072 12.2137Z" fill="#1C2642"/>
<path d="M151.518 23.3743H148.8V13.2058H151.518V23.3743ZM148.473 9.87829C148.473 9.40982 148.637 9.01025 148.964 8.67956C149.291 8.3351 149.686 8.16287 150.149 8.16287C150.612 8.16287 151.007 8.32821 151.334 8.6589C151.661 8.98958 151.825 9.39604 151.825 9.87829C151.825 10.333 151.661 10.7257 151.334 11.0563C151.007 11.387 150.612 11.5524 150.149 11.5524C149.686 11.5524 149.291 11.387 148.964 11.0563C148.637 10.7257 148.473 10.333 148.473 9.87829Z" fill="#1C2642"/>
<path d="M157.167 10.1676V13.2058H159.19V15.6446H157.167V19.9021C157.167 20.3292 157.262 20.6324 157.453 20.8115C157.644 20.9906 157.943 21.0802 158.352 21.0802C158.72 21.0802 158.999 21.0526 159.19 20.9975V23.2709C158.795 23.4363 158.284 23.5189 157.657 23.5189C156.676 23.5189 155.9 23.2434 155.327 22.6922C154.755 22.1273 154.469 21.3557 154.469 20.3775V15.6446H152.65V13.2058H153.161C153.665 13.2058 154.047 13.0611 154.306 12.7718C154.578 12.4686 154.714 12.0759 154.714 11.5937V10.1676H157.167Z" fill="#1C2642"/>
<path d="M162.768 17.1326H167.265C167.237 16.5677 167.033 16.0924 166.652 15.7066C166.284 15.3208 165.739 15.1279 165.017 15.1279C164.363 15.1279 163.831 15.3345 163.422 15.7479C163.014 16.1613 162.796 16.6228 162.768 17.1326ZM167.53 19.7781L169.799 20.4601C169.526 21.3971 168.988 22.1686 168.184 22.7749C167.394 23.3811 166.406 23.6843 165.221 23.6843C163.777 23.6843 162.55 23.1951 161.542 22.2169C160.534 21.2248 160.03 19.9021 160.03 18.2487C160.03 16.6779 160.52 15.3965 161.501 14.4045C162.482 13.3987 163.64 12.8958 164.976 12.8958C166.529 12.8958 167.742 13.3642 168.613 14.3012C169.499 15.2381 169.942 16.5264 169.942 18.166C169.942 18.2762 169.935 18.4002 169.921 18.538C169.921 18.6758 169.921 18.786 169.921 18.8687L169.901 19.0134H162.707C162.734 19.6748 162.993 20.2259 163.484 20.6668C163.974 21.1077 164.56 21.3282 165.241 21.3282C166.399 21.3282 167.162 20.8115 167.53 19.7781Z" fill="#1C2642"/>
<path d="M170.611 20.5428L172.941 20.0261C172.968 20.467 173.138 20.839 173.452 21.1422C173.779 21.4315 174.221 21.5762 174.78 21.5762C175.202 21.5762 175.529 21.4797 175.761 21.2868C175.993 21.0939 176.108 20.8528 176.108 20.5635C176.108 20.0537 175.747 19.723 175.025 19.5714L173.697 19.2614C172.757 19.0547 172.048 18.6827 171.571 18.1453C171.108 17.608 170.877 16.9673 170.877 16.2233C170.877 15.3001 171.231 14.5147 171.939 13.8671C172.661 13.2196 173.561 12.8958 174.637 12.8958C175.318 12.8958 175.918 12.9991 176.435 13.2058C176.953 13.3987 177.355 13.6536 177.641 13.9705C177.927 14.2736 178.145 14.5836 178.295 14.9005C178.445 15.2174 178.54 15.5274 178.581 15.8306L176.313 16.3473C176.258 15.989 176.095 15.6721 175.822 15.3965C175.563 15.121 175.175 14.9832 174.657 14.9832C174.303 14.9832 173.997 15.0796 173.738 15.2725C173.493 15.4654 173.37 15.7066 173.37 15.9959C173.37 16.4919 173.676 16.7951 174.29 16.9053L175.72 17.2153C176.688 17.422 177.423 17.8009 177.927 18.352C178.445 18.9032 178.704 19.5645 178.704 20.3361C178.704 21.2455 178.363 22.0309 177.682 22.6922C177.001 23.3536 176.04 23.6843 174.8 23.6843C174.092 23.6843 173.458 23.5809 172.9 23.3743C172.341 23.1538 171.905 22.8782 171.592 22.5476C171.292 22.2031 171.061 21.8655 170.897 21.5348C170.747 21.1904 170.652 20.8597 170.611 20.5428Z" fill="#1C2642"/>
<path d="M12.5605 29.2054C12.7504 29.1274 13.0026 29.0161 13.3171 28.8713C13.6316 28.7266 14.1627 28.451 14.9104 28.0445C15.658 27.6381 16.376 27.2066 17.0644 26.75C17.7527 26.2934 18.5033 25.72 19.3163 25.0295C20.1292 24.3391 20.8294 23.6292 21.4169 22.8999C22.0043 22.1705 22.4969 21.3353 22.8944 20.3944C23.292 19.4534 23.4908 18.5041 23.4908 17.5464V4.95581C23.4908 4.66628 23.378 4.17817 23.1526 3.9666C22.9271 3.75502 22.4251 3.64923 22.1166 3.64923H2.07881C1.77025 3.64923 1.26831 3.75502 1.04282 3.9666C0.817334 4.17817 0.70459 4.66628 0.70459 4.95581V17.5464C0.70459 18.5041 0.903376 19.4534 1.30095 20.3944C1.69852 21.3353 2.19103 22.1705 2.77849 22.8999C3.36595 23.6292 4.06615 24.3391 4.87909 25.0295C5.69204 25.72 6.44268 26.2934 7.13101 26.75C7.81934 27.2066 8.53734 27.6381 9.28502 28.0445C10.0327 28.451 10.5638 28.7266 10.8783 28.8713C11.1928 29.0161 11.445 29.1274 11.6348 29.2054C11.7773 29.2722 11.9315 29.3056 12.0977 29.3056C12.2638 29.3056 12.4181 29.2722 12.5605 29.2054Z" fill="#3CB371"/>
<path d="M12.5605 29.2054C12.7504 29.1274 13.0026 29.0161 13.3171 28.8713C13.6316 28.7266 14.1627 28.451 14.9104 28.0445C15.658 27.6381 16.376 27.2066 17.0644 26.75C17.7527 26.2934 18.5033 25.72 19.3163 25.0295C20.1292 24.3391 20.8294 23.6292 21.4169 22.8999C22.0043 22.1705 22.4969 21.3353 22.8944 20.3944C23.292 19.4534 23.4908 18.5041 23.4908 17.5464V4.95581C23.4908 4.66628 23.378 4.17817 23.1526 3.9666C22.9271 3.75502 22.4251 3.64923 22.1166 3.64923H2.07881C1.77025 3.64923 1.26831 3.75502 1.04282 3.9666C0.817334 4.17817 0.70459 4.66628 0.70459 4.95581V17.5464C0.70459 18.5041 0.903376 19.4534 1.30095 20.3944C1.69852 21.3353 2.19103 22.1705 2.77849 22.8999C3.36595 23.6292 4.06615 24.3391 4.87909 25.0295C5.69204 25.72 6.44268 26.2934 7.13101 26.75C7.81934 27.2066 8.53734 27.6381 9.28502 28.0445C10.0327 28.451 10.5638 28.7266 10.8783 28.8713C11.1928 29.0161 11.445 29.1274 11.6348 29.2054C11.7773 29.2722 11.9315 29.3056 12.0977 29.3056C12.2638 29.3056 12.4181 29.2722 12.5605 29.2054Z" stroke="white"/>
<path d="M7.09833 15.907L9.19759 18.4575C12.0944 14.3344 17.414 9.61241 20.2505 7.60179C20.891 7.05936 21.8142 7.44586 21.1243 8.03371C17.905 11.0816 13.2488 16.218 10.5609 21.7951C9.58652 22.4157 8.48812 22.6929 8.00264 22.0416L5.20041 17.0737C4.31467 15.9383 5.5925 14.1872 7.09833 15.907Z" fill="white"/>
</svg>